<svg id="Lag_1" data-name="Lag 1" xmlns="http://www.w3.org/2000/svg" viewBox="0 0 370.9 60.8"><defs><style>.cls-1,.cls-2{fill:#257de2;}.cls-2{font-size:37.5px;font-family:ExpresswayRg-Bold, Expressway;font-weight:700;letter-spacing:-0.01em;}</style></defs><title>logo-blue</title><g id="Lag_2" data-name="Lag 2"><g id="Lag_1-2" data-name="Lag 1-2"><path class="cls-1" d="M34.1,60.6c-.5,0-1,.2-1.5.2a30.87,30.87,0,0,1-17-4.6,31.75,31.75,0,0,1-12.9-14A28,28,0,0,1,.1,32.5c-.5-8,2.2-14.9,7.3-20.9A34.62,34.62,0,0,1,21.5,1.8,27.42,27.42,0,0,1,30.9.1l-1,.5a19.7,19.7,0,0,0-8.1,7.3,34.85,34.85,0,0,0-4.7,11,40.94,40.94,0,0,0-1,14.4,40,40,0,0,0,5.9,18,21.66,21.66,0,0,0,9.6,8.6,8.6,8.6,0,0,1,2.5.7Z"/><path class="cls-1" d="M32.5,34.2,54.4,47.4c-.9,1.3-1.7,2.4-2.6,3.6a19.05,19.05,0,0,1-10.9,7.1c-4,1.1-7.6.1-11-2.1a24.34,24.34,0,0,1-8-9.7A46.82,46.82,0,0,1,20,41.8,16.72,16.72,0,0,0,32.5,34.2Z"/><path class="cls-1" d="M58.6,23.2H36.8c-.6,0-.8,0-.9-.7A21.34,21.34,0,0,0,33.1,14a18.46,18.46,0,0,0-7.4-7,1.33,1.33,0,0,1-.7-.3c.9-.9,1.8-1.8,2.7-2.6A15.09,15.09,0,0,1,34.6.9a8.59,8.59,0,0,1,3.9.5c8,2.3,13.6,7.5,17.4,14.8A24.12,24.12,0,0,1,58.6,23.2Z"/></g></g><text class="cls-2" transform="translate(71.38 52.48)">Cloudprinter</text></svg>